<svg width="150" height="50" viewBox="0 0 150 50" fill="none" xmlns="http://www.w3.org/2000/svg">
<rect width="150" height="50" fill="white"/>
<path d="M52.66 31V30.7L53.29 30.46C53.93 30.2 54.25 29.69 54.25 28.93V13.27C54.25 12.47 53.93 11.96 53.29 11.74L52.66 11.5V11.2H60.58C62.7 11.2 64.52 11.6 66.04 12.4C67.58 13.18 68.76 14.31 69.58 15.79C70.42 17.25 70.84 19.01 70.84 21.07C70.84 23.17 70.39 24.96 69.49 26.44C68.59 27.92 67.33 29.05 65.71 29.83C64.11 30.61 62.22 31 60.04 31H52.66ZM58.75 30.4H60.04C61.48 30.4 62.64 30.12 63.52 29.56C64.4 28.98 65.04 28.02 65.44 26.68C65.86 25.32 66.07 23.46 66.07 21.1C66.07 18.74 65.86 16.89 65.44 15.55C65.04 14.19 64.41 13.23 63.55 12.67C62.69 12.09 61.56 11.8 60.16 11.8H58.75V30.4Z" fill="#040A5C"/>
<path d="M77.2734 31.09L71.9634 13.24C71.8234 12.78 71.6734 12.45 71.5134 12.25C71.3534 12.03 71.0734 11.83 70.6734 11.65L70.3134 11.5V11.2H78.2634V11.5L77.6334 11.74C77.1734 11.92 76.8634 12.14 76.7034 12.4C76.5434 12.66 76.5334 13.02 76.6734 13.48L79.9434 25.96L83.4834 15.49L82.7934 13.36C82.6534 12.94 82.5234 12.62 82.4034 12.4C82.2834 12.18 82.0834 12 81.8034 11.86L81.1434 11.5V11.2H88.6734V11.5L87.7434 11.86C87.3434 12 87.1134 12.21 87.0534 12.49C87.0134 12.75 87.0634 13.09 87.2034 13.51L91.0134 26.26L94.6134 13.75C94.7534 13.27 94.8034 12.85 94.7634 12.49C94.7234 12.13 94.4734 11.87 94.0134 11.71L93.3834 11.5V11.2H97.5534V11.5L96.7734 11.8C96.3734 11.94 96.0934 12.16 95.9334 12.46C95.7734 12.76 95.6334 13.13 95.5134 13.57L90.5334 31.09H88.4634L83.9634 16.99L79.3434 31.09H77.2734Z" fill="#040A5C"/>
<path d="M52.5273 41H54.3555C56.043 41 57.0273 39.9648 57.0273 38.1836V38.1758C57.0273 36.3945 56.0391 35.3633 54.3555 35.3633H52.5273V41ZM53.0586 40.5156V35.8477H54.3242C55.7109 35.8477 56.4844 36.6797 56.4844 38.1797V38.1875C56.4844 39.6797 55.7109 40.5156 54.3242 40.5156H53.0586Z" fill="black"/>
<path d="M58.1133 36.2031C58.3008 36.2031 58.4531 36.0508 58.4531 35.8594C58.4531 35.668 58.3008 35.5195 58.1133 35.5195C57.9219 35.5195 57.7695 35.668 57.7695 35.8594C57.7695 36.0508 57.9219 36.2031 58.1133 36.2031ZM57.8516 41H58.3711V36.9375H57.8516V41Z" fill="black"/>
<path d="M59.3398 41H59.8555V35.3633H59.3398V41Z" fill="black"/>
<path d="M60.7812 42.3672H61.2969V40.1523H61.3125C61.5352 40.6953 62.0508 41.0742 62.6992 41.0742C63.7188 41.0742 64.4141 40.2461 64.4141 38.9727V38.9688C64.4141 37.6992 63.7227 36.8633 62.6914 36.8633C62.0391 36.8633 61.5391 37.2461 61.3125 37.7969H61.2969V36.9375H60.7812V42.3672ZM62.6016 40.6133C61.8398 40.6133 61.2969 39.9531 61.2969 38.9727V38.9688C61.2969 37.9844 61.8359 37.3242 62.6016 37.3242C63.3828 37.3242 63.8867 37.9648 63.8867 38.9688V38.9727C63.8867 39.9688 63.3828 40.6133 62.6016 40.6133Z" fill="black"/>
<path d="M65.1094 41H65.625V38.4844C65.625 37.7969 65.9922 37.3594 66.5703 37.3594C66.7461 37.3594 66.8906 37.3867 66.957 37.4141V36.9102C66.8945 36.8906 66.7734 36.8633 66.6367 36.8633C66.1445 36.8633 65.7852 37.1719 65.6406 37.668H65.625V36.9375H65.1094V41Z" fill="black"/>
<path d="M68.9258 41.0742C69.8047 41.0742 70.4531 40.5703 70.5938 39.875L70.6016 39.8359H70.0898L70.082 39.8711C69.9492 40.3125 69.5352 40.6133 68.9375 40.6133C68.1367 40.6133 67.6172 40.0625 67.6016 39.0938H70.6523V38.8906C70.6523 37.6758 69.9688 36.8633 68.8828 36.8633C67.7969 36.8633 67.0781 37.7031 67.0781 38.9766V38.9805C67.0781 40.2656 67.7852 41.0742 68.9258 41.0742ZM68.8789 37.3242C69.5742 37.3242 70.0742 37.7969 70.1328 38.6836H67.6094C67.6719 37.8203 68.1875 37.3242 68.8789 37.3242Z" fill="black"/>
<path d="M72.9883 41.0742C73.8672 41.0742 74.5156 40.5703 74.6562 39.875L74.6641 39.8359H74.1523L74.1445 39.8711C74.0117 40.3125 73.5977 40.6133 73 40.6133C72.1992 40.6133 71.6797 40.0625 71.6641 39.0938H74.7148V38.8906C74.7148 37.6758 74.0312 36.8633 72.9453 36.8633C71.8594 36.8633 71.1406 37.7031 71.1406 38.9766V38.9805C71.1406 40.2656 71.8477 41.0742 72.9883 41.0742ZM72.9414 37.3242C73.6367 37.3242 74.1367 37.7969 74.1953 38.6836H71.6719C71.7344 37.8203 72.25 37.3242 72.9414 37.3242Z" fill="black"/>
<path d="M76.6172 41.0742C76.7422 41.0742 76.875 41.0586 76.957 41.043V40.6211C76.8984 40.6289 76.8164 40.6406 76.7227 40.6406C76.3438 40.6406 76.1523 40.4883 76.1523 40.0391V37.3711H76.957V36.9375H76.1523V35.8398H75.6211V36.9375H75.0234V37.3711H75.6211V40.0469C75.6211 40.7578 75.9492 41.0742 76.6172 41.0742Z" fill="black"/>
<path d="M80.5938 41H81.0938L82.4883 36.2422H82.5L83.8945 41H84.3945L85.9453 35.3633H85.3867L84.1406 40.2031H84.1289L82.7617 35.3633H82.2266L80.8594 40.2031H80.8477L79.6016 35.3633H79.043L80.5938 41Z" fill="black"/>
<path d="M87.2422 41.0742C87.8438 41.0742 88.3789 40.7422 88.6016 40.2578H88.6172V41H89.1328V38.2188C89.1328 37.3867 88.5508 36.8633 87.6211 36.8633C86.7031 36.8633 86.125 37.3633 86.0469 38.0625L86.043 38.1094H86.543L86.5508 38.0703C86.6367 37.6094 87.0234 37.3242 87.6133 37.3242C88.2461 37.3242 88.6172 37.6797 88.6172 38.2656V38.6172L87.3516 38.6953C86.418 38.7578 85.8945 39.1758 85.8945 39.8672V39.875C85.8945 40.5938 86.4414 41.0742 87.2422 41.0742ZM86.4219 39.875V39.8672C86.4219 39.4219 86.7773 39.1445 87.4141 39.1055L88.6172 39.0234V39.4727C88.6172 40.1211 88.0586 40.6211 87.3477 40.6211C86.7969 40.6211 86.4219 40.3203 86.4219 39.875Z" fill="black"/>
<path d="M90.0352 41H90.5508V35.3633H90.0352V41Z" fill="black"/>
<path d="M91.7773 36.2031C91.9648 36.2031 92.1172 36.0508 92.1172 35.8594C92.1172 35.668 91.9648 35.5195 91.7773 35.5195C91.5859 35.5195 91.4336 35.668 91.4336 35.8594C91.4336 36.0508 91.5859 36.2031 91.7773 36.2031ZM91.5156 41H92.0352V36.9375H91.5156V41Z" fill="black"/>
<path d="M94.1719 41.0742C94.7734 41.0742 95.3086 40.7422 95.5312 40.2578H95.5469V41H96.0625V38.2188C96.0625 37.3867 95.4805 36.8633 94.5508 36.8633C93.6328 36.8633 93.0547 37.3633 92.9766 38.0625L92.9727 38.1094H93.4727L93.4805 38.0703C93.5664 37.6094 93.9531 37.3242 94.543 37.3242C95.1758 37.3242 95.5469 37.6797 95.5469 38.2656V38.6172L94.2812 38.6953C93.3477 38.7578 92.8242 39.1758 92.8242 39.8672V39.875C92.8242 40.5938 93.3711 41.0742 94.1719 41.0742ZM93.3516 39.875V39.8672C93.3516 39.4219 93.707 39.1445 94.3438 39.1055L95.5469 39.0234V39.4727C95.5469 40.1211 94.9883 40.6211 94.2773 40.6211C93.7266 40.6211 93.3516 40.3203 93.3516 39.875Z" fill="black"/>
<rect x="0.5" y="0.5" width="149" height="49" stroke="#040A5C" stroke-opacity="0.25"/>
</svg>
